<svg width="128" height="128" viewBox="0 0 128 128" fill="none" xmlns="http://www.w3.org/2000/svg">
<path d="M82.0287 48.6C82.0287 22.1 68.6287 4 64.0287 4C59.4287 4 46.0287 22.1 46.0287 48.6V109.8H82.0287V48.6Z" fill="#E4E4E7"/>
<path d="M64.0287 4C59.4287 4 46.0287 22.2 46.0287 48.6V109.8H64.0287V4Z" fill="white"/>
<path d="M22.0287 123.8L46.0287 74.8V109.8L26.0287 123.8H22.0287Z" fill="white"/>
<path d="M106.029 123.8L82.0287 74.8V109.8L102.029 123.8H106.029Z" fill="#E4E4E7"/>
<path d="M108.729 122.5L85.0287 74.1V48.6C85.0287 36.7 82.3287 24.8 77.4287 15C74.0287 8.2 68.7287 1 64.0287 1C56.8287 1 43.0287 21.1 43.0287 48.6C43.0287 50.3 44.3287 51.6 46.0287 51.6C47.7287 51.6 49.0287 50.3 49.0287 48.6C49.0287 24.1 60.8287 8.4 64.0287 7C67.2287 8.4 79.0287 24.1 79.0287 48.6V74.8C79.0287 75.3 79.1287 75.7 79.3287 76.1L100.329 118.9L83.0287 106.8V98.8C83.0287 97.1 81.7287 95.8 80.0287 95.8C78.3287 95.8 77.0287 97.1 77.0287 98.8V106.8H51.0287V99.8C51.0287 98.1 49.7287 96.8 48.0287 96.8C46.3287 96.8 45.0287 98.1 45.0287 99.8V106.8L27.7287 118.9L48.7287 76.1C49.4287 74.6 48.8287 72.8 47.3287 72.1C45.8287 71.4 44.0287 72 43.3287 73.5L19.3287 122.5C18.8287 123.4 18.9287 124.5 19.4287 125.4C20.0287 126.3 21.0287 126.8 22.0287 126.8H26.0287C26.6287 126.8 27.2287 126.6 27.7287 126.3L46.9287 112.8H52.0287V115.8C52.0287 117.5 53.3287 118.8 55.0287 118.8C56.7287 118.8 58.0287 117.5 58.0287 115.8V112.8H61.0287V115.8C61.0287 117.5 62.3287 118.8 64.0287 118.8C65.7287 118.8 67.0287 117.5 67.0287 115.8V112.8H70.0287V115.8C70.0287 117.5 71.3287 118.8 73.0287 118.8C74.7287 118.8 76.0287 117.5 76.0287 115.8V112.8H81.1287L100.329 126.3C100.829 126.7 101.429 126.8 102.029 126.8H106.029C107.029 126.8 108.029 126.3 108.529 125.4C109.129 124.5 109.129 123.4 108.729 122.5Z" fill="url(#paint0_linear)"/>
<defs>
<linearGradient id="paint0_linear" x1="64.0037" y1="1" x2="64.0037" y2="126.8" gradientUnits="userSpaceOnUse">
<stop stop-color="#FB7DF2"/>
<stop offset="1" stop-color="#7F2ADB" stop-opacity="0.79"/>
</linearGradient>
</defs>
</svg>
